<?xml version="1.0" encoding="UTF-8"?>
<svg id="katman_2" xmlns="http://www.w3.org/2000/svg" xmlns:xlink="http://www.w3.org/1999/xlink" viewBox="0 0 668.93 148">
  <defs>
    <style>
      .cls-1 {
        fill: #fff;
        font-family: MaisonNeue-Bold, 'Maison Neue';
        font-size: 114.53px;
        font-weight: 700;
      }

      .cls-2 {
        fill: url(#Adsız_degrade_10-2);
      }

      .cls-3 {
        fill: url(#Adsız_degrade_14);
      }

      .cls-4 {
        fill: url(#Adsız_degrade_14-2);
      }

      .cls-5 {
        letter-spacing: 0em;
      }

      .cls-6 {
        fill: url(#Adsız_degrade_10);
      }
    </style>
    <linearGradient id="Adsız_degrade_10" data-name="Adsız degrade 10" x1="43.8" y1="145.95" x2="43.8" y2="0" gradientUnits="userSpaceOnUse">
      <stop offset="0" stop-color="#fff540"/>
      <stop offset="1" stop-color="#1d1d1b"/>
    </linearGradient>
    <linearGradient id="Adsız_degrade_10-2" data-name="Adsız degrade 10" x1="84.53" y1="146" x2="84.53" y2="0" xlink:href="#Adsız_degrade_10"/>
    <linearGradient id="Adsız_degrade_14" data-name="Adsız degrade 14" x1="11.38" y1="17.32" x2="11.38" y2="120.82" gradientUnits="userSpaceOnUse">
      <stop offset="0" stop-color="#fff540"/>
      <stop offset="1" stop-color="#1d1d1b"/>
    </linearGradient>
    <linearGradient id="Adsız_degrade_14-2" data-name="Adsız degrade 14" x1="116.87" y1="17.29" x2="116.87" y2="120.84" xlink:href="#Adsız_degrade_14"/>
  </defs>
  <g id="katman_1">
    <g>
      <g>
        <path class="cls-6" d="M57.89,84.72c0,19.49,0,38.99,0,58.48,0,.43,0,.85,0,1.28,0,.58-.09,1.09-.68,1.37-.61.28-1.06-.04-1.48-.41-2.11-1.84-4.22-3.68-6.31-5.54-4.88-4.32-9.67-8.74-14.66-12.93-3.56-2.99-5.03-6.71-5.02-11.23.02-14.13,0-28.27,0-42.4,0-21.2.02-42.4.03-63.6,0-3.05.44-5.96,2.58-8.34,1.62-1.81,2.3-1.85,4.07-.24,6.06,5.55,12.12,11.11,18.14,16.7,2.36,2.19,3.36,4.98,3.36,8.19-.01,19.56,0,39.11,0,58.67Z"/>
        <path class="cls-2" d="M70.63,84.52c0-18.89.09-37.79-.06-56.68-.04-4.96,1.5-8.8,5.24-12.03,5.57-4.82,10.95-9.87,16.42-14.8,1.52-1.38,2.06-1.34,3.49.18,2.09,2.23,2.72,4.97,2.72,7.92.01,14.08,0,28.16.01,42.24,0,21.57-.03,43.15.03,64.72.01,4.63-1.52,8.37-5.07,11.41-6.84,5.87-13.58,11.86-20.36,17.81-.52.45-1.01.97-1.75.6-.9-.45-.68-1.35-.68-2.11-.01-17.06-.01-34.13-.01-51.19,0-2.68,0-5.36,0-8.04h.01Z"/>
        <path class="cls-3" d="M22.67,58.66c0,11.94-.21,23.88.09,35.81.14,5.44-1.6,9.45-5.78,12.84-4.91,3.98-9.54,8.33-14.29,12.5-.57.5-1.1,1.3-2.02.9-.97-.43-.58-1.37-.58-2.11-.02-25.34.02-50.68-.06-76.02-.01-4.22,1.45-7.45,4.66-10.19,5.23-4.46,10.25-9.17,15.39-13.75.6-.54,1.12-1.65,2.03-1.25.87.38.54,1.51.54,2.34.01,12.97,0,25.95,0,38.92h.01Z"/>
        <path class="cls-4" d="M105.72,58.66c0-13.09,0-26.19.01-39.28,0-.69-.33-1.63.46-1.99.8-.37,1.27.51,1.79.98,5.34,4.81,10.63,9.66,15.99,14.44,2.82,2.51,4.12,5.52,4.11,9.33-.06,25.52-.03,51.03-.03,76.55,0,.75.28,1.68-.69,2.08-.85.35-1.36-.37-1.88-.83-5.35-4.71-10.68-9.43-16.01-14.15-2.57-2.28-3.77-5.14-3.76-8.57.02-12.85,0-25.7,0-38.55h0Z"/>
      </g>
      <text class="cls-1" transform="translate(183.11 113.64)"><tspan x="0" y="0">Da</tspan><tspan class="cls-5" x="136.63" y="0">t</tspan><tspan x="179.8" y="0">agora</tspan></text>
    </g>
  </g>
</svg>